<svg xmlns="http://www.w3.org/2000/svg" version="1.1" x="0" y="0" viewBox="0 0 117.5 86.5" xml:space="preserve"><style type="text/css">
	.st0{fill:#FFEB00;}
	.st1{fill:#999;}
</style><path class="st0" d="M1.5 36.5V18.8h4v17.6H1.5zM6.2 36.5v-3.3h0.7c1.3 0 2.1-0.1 2.8-0.3 2-0.7 2.5-3.1 2.5-5.4 0-1.8-0.4-4.1-2.3-5 -0.9-0.4-1.9-0.4-3.8-0.4v-3.3h1.9c3.4 0 5.3 1.1 6.7 3 1.4 2 1.7 4.1 1.7 5.8 0 2.5-0.8 4.9-2.5 6.7 -1.9 1.9-4.4 2.1-6.3 2.1H6.2z"/><path class="st0" d="M19.2 36.5V18.8h4v17.6H19.2z"/><path class="st0" d="M34.5 36.9h-0.4c-6.4 0-8-5.3-8-9 0-6.5 4.1-9.4 8.4-9.5v3.3c-1.6 0.1-4.2 1.3-4.2 5.7 0 5.5 3.1 5.9 4.2 6V36.9zM34.8 26.7h7.9c0 2.4-0.1 9.8-0.1 9.8h-2.8l-0.2-2.1c-1.6 2-3.4 2.3-4.4 2.5v-3.3c1.3-0.2 3.2-0.5 4-3.6h-4.4V26.7zM38.8 24.6c-0.7-2.2-1.9-2.7-3.6-2.9v-3.4c3.7 0.1 6.7 1.7 7.5 6L38.8 24.6z"/><path class="st0" d="M46.3 36.5V18.8h4v17.6H46.3z"/><path class="st0" d="M52 18.8h4.6v3.3H52V18.8zM57.2 36.5V18.8h4v17.6H57.2zM61.9 22.1v-3.3h4.6v3.3H61.9z"/><path class="st0" d="M63.8 36.5l6.1-17.6h4.5l6.2 17.6h-4.5l-1.1-3.7h-4.9l0.9-3.2h3l-1.9-6.2 -3.9 13.2H63.8z"/><path class="st0" d="M82.6 36.5V18.8h4v17.6H82.6zM87.2 36.5v-3.3H95v3.3H87.2z"/><path class="st0" d="M0 61.5l6.1-17.6h4.5l6.2 17.6h-4.5l-1.1-3.7H6.3l0.9-3.2h3l-1.9-6.2L4.5 61.5H0z"/><path class="st0" d="M18.7 61.5V43.8h4v17.6H18.7zM23.3 55v-3.2h1.8c1.4 0 3.6 0 3.6-2.5 0-2.1-1.9-2.1-3.2-2.1h-2.2v-3.3h2.8c1.7 0 3.3 0 4.7 1 1.8 1.3 1.8 3.3 1.8 3.8 0 2.7-1.7 4.1-3.1 4.3 0.5 0.1 1.3 0.4 1.9 1.4 0.4 0.7 0.4 1 0.8 3.6 0.3 1.7 0.6 2.5 1.3 3.5h-4.2c-0.3-0.5-0.6-1-0.9-2.4 -0.1-0.6-0.2-1.3-0.3-1.9 -0.4-2-1.3-2.1-2.9-2.1H23.3z"/><path class="st0" d="M34 43.8h4.6v3.3H34V43.8zM39.3 61.5V43.8h4v17.6H39.3zM43.9 47.1v-3.3h4.6v3.3H43.9z"/><path class="st0" d="M1.5 86.5V68.8h4v17.6H1.5zM6.2 86.5v-3.3h7.7v3.3H6.2z"/><path class="st0" d="M15.1 86.5l6.1-17.6h4.5l6.2 17.6h-4.5l-1.1-3.7h-4.9l0.9-3.2h3l-1.9-6.2 -3.9 13.2H15.1z"/><path class="st0" d="M33.8 86.5V68.8h4v17.6H33.8zM40.4 83.2c1.7 0 3.8-0.1 3.8-2.3 0-1.9-1.6-2.1-2.6-2.1h-3.1v-3.2h3.1c2 0 2.3-1 2.3-1.7 0-1.7-1.7-1.8-2.6-1.8h-2.8v-3.3H42c3.9 0 5.9 1.8 5.9 4.4 0 2.5-1.9 3.4-2.5 3.7 0.6 0.3 2.9 1.3 2.9 4.3 0 3.6-2.8 5.2-6.2 5.2h-3.6v-3.3H40.4z"/><path class="st1" d="M53.7 9.9c0.3 0 0.6-0.1 0.9-0.2 0.3-0.1 0.5-0.3 0.7-0.6 0.2-0.2 0.3-0.5 0.5-0.8 0.1-0.3 0.2-0.6 0.2-1 0-0.4-0.1-0.7-0.2-1 -0.1-0.3-0.3-0.6-0.5-0.8C55 5.3 54.8 5.2 54.5 5c-0.3-0.1-0.6-0.2-0.9-0.2 -0.2 0-0.4 0-0.6 0.1 -0.2 0.1-0.4 0.2-0.6 0.3 -0.2 0.1-0.3 0.3-0.5 0.5 -0.1 0.2-0.3 0.4-0.3 0.6v2c0.2 0.5 0.5 0.9 0.9 1.2C52.8 9.8 53.3 9.9 53.7 9.9L53.7 9.9zM54.4 11.7c-0.7 0-1.2-0.1-1.7-0.4 -0.5-0.3-0.9-0.7-1.2-1.2V15h-2.2V3.1h1.9v1.4c0.3-0.5 0.7-0.9 1.2-1.2C53 3.1 53.5 3 54.2 3c0.6 0 1.1 0.1 1.6 0.3 0.5 0.2 0.9 0.5 1.2 0.9 0.3 0.4 0.6 0.9 0.8 1.4 0.2 0.5 0.3 1.1 0.3 1.7 0 0.6-0.1 1.2-0.3 1.7 -0.2 0.5-0.4 1-0.8 1.4 -0.3 0.4-0.7 0.7-1.2 0.9C55.5 11.6 55 11.7 54.4 11.7L54.4 11.7z"/><path class="st1" d="M63 10.2c0.4 0 0.7-0.1 1-0.2 0.3-0.1 0.6-0.3 0.8-0.5 0.2-0.2 0.4-0.4 0.4-0.6v-1c-0.3-0.1-0.5-0.2-0.8-0.2 -0.3-0.1-0.6-0.1-0.9-0.1 -0.6 0-1 0.1-1.4 0.4 -0.4 0.3-0.5 0.6-0.5 1 0 0.4 0.1 0.7 0.4 0.9C62.3 10.1 62.6 10.2 63 10.2L63 10.2zM62.4 11.7c-0.4 0-0.8-0.1-1.1-0.2 -0.4-0.1-0.7-0.3-0.9-0.6 -0.3-0.2-0.5-0.5-0.6-0.8 -0.1-0.3-0.2-0.7-0.2-1.1 0-0.4 0.1-0.8 0.3-1.1 0.2-0.3 0.4-0.6 0.7-0.9 0.3-0.2 0.7-0.4 1.1-0.6 0.4-0.1 0.9-0.2 1.4-0.2 0.4 0 0.7 0 1.1 0.1 0.4 0.1 0.7 0.2 1 0.3V6.2c0-0.6-0.2-1-0.5-1.3 -0.3-0.3-0.8-0.5-1.4-0.5 -0.5 0-0.9 0.1-1.3 0.2 -0.4 0.2-0.9 0.4-1.3 0.7L60 4.1C61.1 3.4 62.2 3 63.5 3c1.2 0 2.2 0.3 2.8 0.9 0.7 0.6 1 1.5 1 2.6v2.6c0 0.2 0 0.4 0.1 0.5 0.1 0.1 0.2 0.2 0.5 0.2v1.8c-0.2 0-0.4 0.1-0.6 0.1 -0.2 0-0.3 0-0.5 0 -0.4 0-0.7-0.1-0.9-0.3 -0.2-0.2-0.3-0.4-0.4-0.7l0-0.5c-0.4 0.5-0.8 0.9-1.4 1.1C63.6 11.6 63 11.7 62.4 11.7L62.4 11.7z"/><path class="st1" d="M74.9 5c-0.7 0-1.2 0.1-1.8 0.4 -0.5 0.2-0.9 0.6-1.1 1.1v5.1h-2.2V3.1h2V5c0.3-0.6 0.7-1 1.1-1.4C73.5 3.2 74 3 74.5 3c0.1 0 0.2 0 0.3 0 0.1 0 0.1 0 0.2 0V5L74.9 5z"/><path class="st1" d="M81.9 11.2c-0.3 0.1-0.6 0.3-1.1 0.4 -0.4 0.1-0.9 0.2-1.3 0.2 -0.3 0-0.6 0-0.8-0.1 -0.3-0.1-0.5-0.2-0.7-0.4 -0.2-0.2-0.4-0.4-0.5-0.6 -0.1-0.3-0.2-0.6-0.2-1V4.8h-1.1V3.1h1.1V0.4h2.2v2.7h1.8v1.7h-1.8v4.1c0 0.3 0.1 0.5 0.2 0.6 0.2 0.1 0.4 0.2 0.6 0.2 0.2 0 0.4 0 0.7-0.1 0.2-0.1 0.4-0.1 0.5-0.2L81.9 11.2 81.9 11.2z"/><path class="st1" d="M91.3 11.6h-2.2V6.9c0-0.7-0.1-1.2-0.4-1.5 -0.2-0.3-0.6-0.5-1-0.5 -0.2 0-0.4 0-0.7 0.1 -0.2 0.1-0.4 0.2-0.6 0.4C86.3 5.6 86.1 5.7 86 6c-0.2 0.2-0.3 0.5-0.4 0.7v4.9h-2.2V3.1h1.9v1.6c0.3-0.5 0.8-1 1.4-1.3C87.4 3.2 88 3 88.8 3c0.5 0 1 0.1 1.3 0.3 0.3 0.2 0.6 0.4 0.8 0.8 0.2 0.3 0.3 0.7 0.4 1.1 0.1 0.4 0.1 0.8 0.1 1.2V11.6L91.3 11.6z"/><path class="st1" d="M99.8 6.7c-0.1-0.6-0.3-1.1-0.7-1.5 -0.4-0.4-0.9-0.6-1.5-0.6 -0.3 0-0.6 0.1-0.8 0.2 -0.3 0.1-0.5 0.2-0.7 0.4 -0.2 0.2-0.4 0.4-0.5 0.7 -0.1 0.3-0.2 0.5-0.2 0.9H99.8L99.8 6.7zM97.6 11.7c-0.7 0-1.3-0.1-1.8-0.3 -0.5-0.2-1-0.5-1.4-0.9 -0.4-0.4-0.7-0.9-0.9-1.4 -0.2-0.5-0.3-1.1-0.3-1.7 0-0.6 0.1-1.2 0.3-1.7 0.2-0.5 0.5-1 0.9-1.4 0.4-0.4 0.9-0.7 1.4-1C96.4 3.1 97 3 97.7 3c0.7 0 1.3 0.1 1.8 0.4 0.5 0.2 1 0.6 1.4 1 0.4 0.4 0.7 0.9 0.9 1.4 0.2 0.5 0.3 1.1 0.3 1.6 0 0.1 0 0.3 0 0.4 0 0.1 0 0.2 0 0.3h-6.5c0 0.3 0.1 0.6 0.2 0.9 0.1 0.3 0.3 0.5 0.5 0.7 0.2 0.2 0.4 0.3 0.7 0.4 0.3 0.1 0.5 0.1 0.8 0.1 0.4 0 0.8-0.1 1.2-0.3 0.4-0.2 0.6-0.5 0.8-0.8l1.9 0.5c-0.3 0.6-0.8 1.2-1.5 1.6C99.4 11.5 98.6 11.7 97.6 11.7L97.6 11.7z"/><path class="st1" d="M109 5c-0.7 0-1.2 0.1-1.8 0.4 -0.5 0.2-0.9 0.6-1.1 1.1v5.1h-2.2V3.1h2V5c0.3-0.6 0.7-1 1.1-1.4 0.5-0.4 1-0.5 1.5-0.5 0.1 0 0.2 0 0.3 0 0.1 0 0.1 0 0.2 0V5L109 5z"/><path class="st1" d="M114 11.7c-0.3 0-0.7 0-1.1-0.1 -0.4-0.1-0.7-0.1-1.1-0.2 -0.4-0.1-0.7-0.2-1-0.4 -0.3-0.1-0.6-0.3-0.9-0.5l0.9-1.5c1.1 0.7 2.1 1 3.1 1 0.5 0 0.8-0.1 1.1-0.2 0.3-0.2 0.4-0.4 0.4-0.7 0-0.3-0.2-0.5-0.5-0.7 -0.3-0.1-0.8-0.3-1.5-0.5 -0.5-0.1-1-0.3-1.4-0.4 -0.4-0.1-0.7-0.3-0.9-0.5 -0.2-0.2-0.4-0.4-0.5-0.6 -0.1-0.2-0.2-0.5-0.2-0.8 0-0.4 0.1-0.8 0.3-1.2 0.2-0.3 0.4-0.6 0.7-0.9 0.3-0.2 0.7-0.4 1.1-0.6 0.4-0.1 0.9-0.2 1.3-0.2 0.6 0 1.2 0.1 1.8 0.3 0.6 0.2 1.2 0.4 1.7 0.8l-0.9 1.3c-0.5-0.3-0.9-0.5-1.3-0.7 -0.4-0.1-0.8-0.2-1.3-0.2 -0.4 0-0.7 0.1-1 0.2 -0.3 0.1-0.4 0.4-0.4 0.7 0 0.3 0.1 0.5 0.4 0.6 0.3 0.1 0.7 0.3 1.3 0.4 0.6 0.2 1.1 0.3 1.5 0.5 0.4 0.2 0.8 0.3 1 0.5 0.3 0.2 0.5 0.4 0.6 0.7 0.1 0.3 0.2 0.6 0.2 0.9 0 0.4-0.1 0.8-0.3 1.1 -0.2 0.3-0.4 0.6-0.7 0.8 -0.3 0.2-0.7 0.4-1.1 0.5C115 11.7 114.5 11.7 114 11.7L114 11.7z"/><path class="st1" d="M6.2 9.7C4.8 9.6 3.4 8.6 3.4 6c0-1.3 0.3-3.7 2.7-3.9V0c-4 0.1-5.5 3.2-5.5 5.9 0 2.9 1.5 4.7 3.1 5.4 1 0.5 1.7 0.5 2.4 0.5V9.7L6.2 9.7z"/><path class="st1" d="M11.3 3.7C11.1 3 10.5 0.2 6.6 0v2.1c1.6 0.1 2 1.2 2.1 1.7L11.3 3.7 11.3 3.7z"/><path class="st1" d="M8.8 7.6C8.7 8.4 8.3 9.4 6.6 9.7v2.2c0.9-0.1 2.3-0.2 3.4-1.2 1.1-1 1.4-2.3 1.5-2.9L8.8 7.6 8.8 7.6z"/><polygon class="st1" points="15.4 11.6 15.4 0.2 12.8 0.2 12.8 11.6 15.4 11.6 "/><polygon class="st1" points="19.8 11.6 23 11.6 17.5 5.4 22.7 0.2 19.4 0.2 15.8 4.1 15.8 6.9 19.8 11.6 "/><path class="st1" d="M28 9.7c-1.3-0.1-2.7-1-2.7-3.6 0-1.3 0.3-3.7 2.7-3.9V0c-4 0.1-5.5 3.2-5.5 5.9 0 2.9 1.5 4.7 3.1 5.4 1 0.5 1.7 0.5 2.4 0.5V9.7L28 9.7z"/><path class="st1" d="M33.2 3.7C33 3 32.4 0.2 28.5 0v2.1c1.6 0.1 2 1.2 2.1 1.7L33.2 3.7 33.2 3.7z"/><path class="st1" d="M30.7 7.6c-0.1 0.7-0.5 1.8-2.2 2.1v2.2c0.9-0.1 2.3-0.2 3.4-1.2 1.1-1 1.4-2.3 1.5-2.9L30.7 7.6 30.7 7.6z"/><path class="st1" d="M42.3 2.6c0-0.9-0.6-1.8-1.9-1.8 -1.4 0-2 1-2 1.9 0 0.8 0.5 1.4 1.1 2 0.2 0.1 0.3 0.3 0.5 0.5C41 4.6 42.3 3.8 42.3 2.6L42.3 2.6zM39.9 11.1c1.3 0 2.4-0.6 3.2-1.6L39.7 6c-1 0.6-2.1 1.4-2.1 2.8C37.6 10.1 38.5 11.1 39.9 11.1L39.9 11.1zM39.2 5.5L39 5.3c-0.7-0.8-1.4-1.6-1.4-2.6 0-1.1 0.8-2.5 2.8-2.5 1.7 0 2.6 1.2 2.6 2.4 0 1.3-1.4 2.4-2.7 3.1l3.3 3.2c0.6-1 1-2.2 1-3.3 0-0.1 0-0.5 0-0.5h0.7c0 0 0 0.4 0 0.5 0 1.3-0.4 2.6-1.2 3.7l1.9 1.9 -0.6 0.5L43.6 10c-0.9 1.1-2.2 1.8-3.7 1.8 -1.9 0-3.1-1.4-3.1-2.9C36.8 7.1 38.1 6.1 39.2 5.5L39.2 5.5z"/></svg>